<?xml version="1.0" standalone="no"?><!DOCTYPE svg PUBLIC "-//W3C//DTD SVG 1.1//EN" "http://www.w3.org/Graphics/SVG/1.1/DTD/svg11.dtd"><svg t="1734814808203" class="icon" viewBox="0 0 1024 1024" version="1.1" xmlns="http://www.w3.org/2000/svg" p-id="1573" xmlns:xlink="http://www.w3.org/1999/xlink" width="256" height="256"><path d="M985.971 606.176a40.212 40.212 0 0 0-5.617-3.968 39.846 39.846 0 0 0-23.976-5.608l-93.798 7.854-130.983 10.969c12.933-33.332 18.229-69.424 15.158-106.1-5.319-63.528-35.06-121.182-83.742-162.342-43.028-36.379-97.717-56.414-153.991-56.414-43.254 0-84.998 11.64-121.307 33.055l-10.633-126.984v-0.001l-7.854-93.796a39.837 39.837 0 0 0-9.925-23.201 40.31 40.31 0 0 0-4.44-4.389c-45.474-38.447-113.749-32.729-152.196 12.745-16.245 19.213-25.112 42.941-25.517 67.766-24.471 4.597-46.444 17.347-62.738 36.621-16.36 19.349-25.287 43.248-25.685 68.249-24.586 4.551-46.667 17.328-63.026 36.677C6.955 319.48-2.035 347.625 0.388 376.559c2.321 27.721 14.857 52.981 35.404 71.537a40.137 40.137 0 0 0 14.666 9.369c0.175 0.065 0.349 0.132 0.524 0.194 0.191 0.066 0.383 0.128 0.575 0.192a39.98 39.98 0 0 0 12.777 2.102c1.962 0 3.92-0.154 5.861-0.439l91.1-7.629h0.001l125.607-10.518c-13.414 33.799-18.938 70.493-15.815 107.789 5.319 63.528 35.06 121.182 83.742 162.341 43.029 36.379 97.717 56.414 153.993 56.414 45.613 0 89.55-12.94 127.2-36.645l10.754 128.423 7.627 91.086a40.076 40.076 0 0 0 4.775 18.177 40.11 40.11 0 0 0 12.362 13.97c19.802 15.593 43.51 23.237 67.116 23.237 30.906 0 61.622-13.078 83.093-38.472 16.809-19.881 25.226-44.093 25.62-68.295 23.8-4.417 46.278-16.747 63.089-36.63 16.309-19.288 25.229-43.098 25.68-68.014 23.607-4.404 45.9-16.648 62.577-36.374 38.446-45.477 32.728-113.752-12.745-152.198zM86.792 348.958c4.949-5.854 11.882-9.43 19.521-10.07a28.553 28.553 0 0 1 14.506 2.578 40.292 40.292 0 0 0 5.181 5.277 39.806 39.806 0 0 0 20.996 9.151c12.811 2.589 26.575-1.163 36.348-11.023 0.048-0.049 0.095-0.101 0.143-0.149 0.366-0.373 0.731-0.746 1.085-1.136 0.083-0.092 0.16-0.188 0.242-0.281 0.175-0.196 0.345-0.399 0.518-0.6 0.3-0.35 0.596-0.702 0.881-1.059 0.095-0.118 0.195-0.227 0.289-0.346 0.142-0.181 0.271-0.367 0.409-0.55a40.082 40.082 0 0 0 1.294-1.81l0.208-0.31c11.37-17.206 7.811-40.539-8.703-53.489a30.4 30.4 0 0 1-0.811-0.654l-0.008-0.007-0.007-0.006c-5.85-4.949-9.424-11.88-10.063-19.516-0.64-7.64 1.734-15.071 6.684-20.925s11.882-9.431 19.521-10.07c5.794-0.488 11.465 0.765 16.421 3.555a40.392 40.392 0 0 0 3.796 3.673 39.925 39.925 0 0 0 11.175 6.671c15.504 7.419 34.649 4.208 46.821-9.152 14.035-15.404 13.777-38.785-0.004-53.875a40.124 40.124 0 0 0-5.31-5.041 29.569 29.569 0 0 1-0.861-0.695c-5.71-4.828-9.199-11.591-9.823-19.042-0.624-7.452 1.691-14.7 6.52-20.41 6.949-8.219 17.656-11.421 27.499-9.233l5.525 65.979c-0.021 0.188-0.027 0.376-0.045 0.564-0.038 0.396-0.068 0.792-0.094 1.188a36.585 36.585 0 0 0-0.086 2.404c-0.002 0.4 0 0.8 0.009 1.201 0.01 0.401 0.027 0.803 0.049 1.204a36.193 36.193 0 0 0 0.202 2.392c0.045 0.393 0.094 0.785 0.15 1.177a44.69 44.69 0 0 0 0.413 2.364c0.082 0.397 0.171 0.792 0.265 1.187 0.092 0.386 0.187 0.77 0.29 1.153 0.048 0.176 0.084 0.355 0.134 0.531l12.338 147.36-152.699 12.787c-0.288 0.003-0.575 0.021-0.862 0.03-0.354 0.011-0.708 0.017-1.061 0.037-0.343 0.02-0.686 0.053-1.028 0.082-0.349 0.029-0.699 0.052-1.047 0.09-0.351 0.039-0.701 0.092-1.051 0.139-0.299 0.041-0.6 0.072-0.898 0.119l-69.675 5.835a28.765 28.765 0 0 1-1.977-8.353c-0.643-7.64 1.73-15.071 6.68-20.926z m422.03 338.95c-37.39 0-73.735-13.319-102.342-37.506-32.364-27.362-52.135-65.69-55.671-107.924-3.537-42.234 9.585-83.317 36.948-115.681 30.213-35.735 74.413-56.23 121.265-56.23 37.389 0 73.734 13.32 102.341 37.505 66.81 56.486 75.21 156.795 18.724 223.606-30.214 35.735-74.413 56.23-121.265 56.23z m428.802 18.814c-9.968 11.787-27.664 13.27-39.425 3.328a33.394 33.394 0 0 1-0.842-0.745 40.179 40.179 0 0 0-5.877-4.417c-17.169-11.069-40.253-7.438-53.109 8.951-11.166 14.236-11.142 33.674-1.222 47.734a39.942 39.942 0 0 0 12.679 13.027c3.566 4.421 5.738 9.8 6.223 15.585 0.641 7.639-1.733 15.069-6.684 20.924-10.218 12.085-28.362 13.604-40.492 3.349-0.272-0.23-0.534-0.47-0.797-0.708-15.531-14.091-39.109-13.688-54.162 0.386l-0.269 0.254a39.604 39.604 0 0 0-1.571 1.581c-0.166 0.176-0.337 0.344-0.5 0.523-0.11 0.122-0.212 0.249-0.32 0.371-0.215 0.242-0.426 0.489-0.635 0.737-0.216 0.255-0.43 0.512-0.639 0.771-0.1 0.125-0.205 0.243-0.305 0.369-0.146 0.186-0.279 0.378-0.422 0.565-0.151 0.2-0.303 0.401-0.449 0.604-0.292 0.4-0.574 0.806-0.849 1.213l-0.22 0.327c-7.311 11.073-8.441 24.678-3.912 36.426a39.797 39.797 0 0 0 12.395 19.042 40.165 40.165 0 0 0 6.162 4.322c7.147 10.397 6.804 24.705-1.725 34.793-7.101 8.399-18.027 11.688-28.09 9.488l-5.832-69.643c-0.003-0.305-0.022-0.609-0.032-0.914-0.011-0.349-0.017-0.697-0.036-1.046-0.021-0.349-0.056-0.696-0.085-1.044-0.028-0.344-0.052-0.688-0.09-1.031-0.038-0.352-0.092-0.7-0.14-1.051-0.04-0.294-0.07-0.59-0.117-0.883L713.45 697.222l147.36-12.34c0.103 0.012 0.206 0.014 0.31 0.024 0.607 0.063 1.217 0.111 1.825 0.146 0.118 0.006 0.236 0.017 0.354 0.022 0.633 0.029 1.265 0.048 1.897 0.048 0.069 0 0.139-0.007 0.208-0.007 0.715-0.004 1.43-0.032 2.144-0.074 0.185-0.011 0.369-0.015 0.554-0.028 0.816-0.06 1.632-0.145 2.443-0.254 0.323-0.043 0.644-0.104 0.967-0.155a40.038 40.038 0 0 0 1.602-0.279c0.357-0.071 0.712-0.156 1.068-0.237 0.496-0.114 0.991-0.233 1.484-0.366 0.168-0.046 0.339-0.077 0.506-0.125l65.98-5.525c3.797 9.34 2.42 20.431-4.528 28.65z" fill="#1C86E5" p-id="1574"></path><path d="M597.732 590.088c-0.311 0-0.622-0.003-0.935-0.011-22.086-0.506-39.579-18.82-39.072-40.906 0.589-25.679-9.14-41.898-31.542-52.59-19.306-9.214-39.609-10.112-39.806-10.117-22.084-0.551-39.541-18.901-38.99-40.985 0.55-22.085 18.875-39.557 40.985-38.99 3.755 0.093 37.691 1.392 72.268 17.893 51.01 24.344 78.378 69.313 77.063 126.623-0.498 21.772-18.306 39.083-39.971 39.083z" fill="#80E1FF" p-id="1575"></path></svg>